<?xml version="1.0" encoding="UTF-8" standalone="no"?>
<!-- Created with Inkscape (http://www.inkscape.org/) -->
<svg xmlns:rdf="http://www.w3.org/1999/02/22-rdf-syntax-ns#" xmlns="http://www.w3.org/2000/svg" version="1.1" xmlns:cc="http://creativecommons.org/ns#" xmlns:dc="http://purl.org/dc/elements/1.1/" viewBox="0 0 225 67.32">
 <defs>
  <filter id="filter4494" height="1.2450863" width="1.0596904" color-interpolation-filters="sRGB" y="-0.12254314" x="-0.029845156">
   <feGaussianBlur stdDeviation="2.5179859"/>
  </filter>
  <filter id="filter4498" height="1.0457565" width="2.0715098" color-interpolation-filters="sRGB" y="-0.022878204" x="-0.53575498">
   <feGaussianBlur stdDeviation="0.51705933"/>
  </filter>
  <filter id="filter4502" height="1.0457565" width="1.5592892" color-interpolation-filters="sRGB" y="-0.022878204" x="-0.27964458">
   <feGaussianBlur stdDeviation="0.51705933"/>
  </filter>
  <filter id="filter4510" height="1.0457565" width="1.2643867" color-interpolation-filters="sRGB" y="-0.022878204" x="-0.13219333">
   <feGaussianBlur stdDeviation="0.51705933"/>
  </filter>
  <filter id="filter4518" height="1.0457565" width="1.2190181" color-interpolation-filters="sRGB" y="-0.022878204" x="-0.10950906">
   <feGaussianBlur stdDeviation="0.51705933"/>
  </filter>
  <filter id="filter4530" height="1.0597008" width="1.4567848" color-interpolation-filters="sRGB" y="-0.029850425" x="-0.22839247">
   <feGaussianBlur stdDeviation="0.67463517"/>
  </filter>
  <filter id="filter4562" height="1.0669565" width="1.3204948" color-interpolation-filters="sRGB" y="-0.03347826" x="-0.1602474">
   <feGaussianBlur stdDeviation="0.75662614"/>
  </filter>
 </defs>
 <metadata>
  <rdf:RDF>
   <cc:Work rdf:about="">
    <dc:format>image/svg+xml</dc:format>
    <dc:type rdf:resource="http://purl.org/dc/dcmitype/StillImage"/>
    <dc:title/>
   </cc:Work>
  </rdf:RDF>
 </metadata>
 <g fill-rule="nonzero" transform="translate(-294.59153,-418.82875)">
  <path d="m294.6,418.8,225,0,0,67.32-225,0,0-67.32z" fill="#010005"/>
  <g transform="translate(0,-2.254675)">
   <path d="m424.5,430.1,5.585,0c0.525,0,0.9538,0.4288,0.9538,0.9538v0.7362c0,0.525-0.4288,0.9538-0.9538,0.9538h-3.674v19.7h3.674c0.525,0,0.9538,0.43,0.9538,0.955v0.735c0,0.525-0.4288,0.955-0.9538,0.955h-3.674v21.68h3.674c0.525,0,0.9538,0.4288,0.9538,0.9538v0.7362c0,0.525-0.4288,0.9538-0.9538,0.9538h-5.585c-0.525,0-0.9538-0.4288-0.9538-0.9538v-0.7362-23.59-0.735-21.61-0.7362c0-0.525,0.4288-0.9538,0.9538-0.9538zm-115.7,47.23c-0.1112,1.34-0.0975,2.085-1.149,2.085h-0.9925c-0.525,0-0.865-0.51-0.82-1.034l3.89-46.87c0.0537-0.6562,0.6438-1.242,1.512-1.242h0.9138c0.7362,0,1.174,0.5662,1.264,1.261l0.3925,3.022,5.239,43.82c0.0638,0.5238-0.2575,1.034-0.7812,1.034h-0.9925c-1.052,0-1.066-0.745-1.226-2.085l-1.465-12.26h-4.771l-1.014,12.26zm5.496-14.67-2.532-21.18-1.751,21.18,4.284,0zm147.3,16.76c-0.4312,0-0.8012-0.5075-0.8012-0.9412v-47.43c0-0.5175,0.4525-0.9412,1.006-0.9412h2.612c0.5538,0,1.068,0.4238,1.142,0.9412,1.541,10.65,3.05,21.31,4.571,31.96l-0.001-31.82c0-0.5175,0.3888-0.9412,0.985-0.9412h1.079c0.4312,0,0.8025,0.5075,0.8025,0.9412v47.29c0,0.5175-0.4538,0.9412-1.008,0.9412h-1.409c-0.5538,0-1.064-0.45-1.138-0.9675l-5.776-40.45c0.02,13.49-0.002,26.99-0.002,40.48,0,0.5175-0.3888,0.9412-0.9862,0.9412h-1.078zm46.75-16.97,0,12.14c0,2.654-2.19,4.825-4.866,4.825s-4.865-2.171-4.865-4.825v-10.57c0-0.5188,0.465-0.9425,1.034-0.9425h0.7975c0.5688,0,1.034,0.4238,1.034,0.9425v11.02c0,1.091,0.9,1.984,2,1.984s2.001-0.8925,2.001-1.984v-12.6c0-6.046-6.866-10.3-6.866-16.98v-10.12c0-2.654,2.189-4.825,4.865-4.825s4.866,2.171,4.866,4.825v7.844c0,0.5175-0.4662,0.9412-1.035,0.9412h-0.7962c-0.5688,0-1.034-0.4238-1.034-0.9412v-8.089c0-1.091-0.9012-1.984-2.001-1.984s-2,0.8925-2,1.984v10.17c0,6.662,6.866,10.36,6.866,17.18zm-154.3,16.97-5.584,0h-0.025c-0.007,0-0.0162-0.001-0.0237-0.001-0.009,0-0.0163-0.001-0.025-0.001-0.007-0.001-0.0163-0.001-0.0238-0.002-0.007-0.001-0.0162-0.001-0.0238-0.002-0.007-0.001-0.0162-0.002-0.0237-0.004-0.008-0.001-0.0163-0.002-0.0238-0.004-0.007-0.001-0.015-0.002-0.0238-0.005-0.007-0.001-0.015-0.002-0.0225-0.005-0.007-0.001-0.015-0.004-0.0225-0.005-0.007-0.002-0.015-0.004-0.0225-0.006-0.007-0.002-0.0163-0.005-0.0238-0.007-0.006-0.001-0.0138-0.004-0.0213-0.006-0.007-0.002-0.015-0.005-0.0225-0.009-0.007-0.002-0.0138-0.005-0.0213-0.008-0.007-0.002-0.015-0.006-0.0225-0.009-0.006-0.004-0.0137-0.006-0.02-0.01-0.007-0.002-0.015-0.006-0.0213-0.01-0.007-0.003-0.0137-0.006-0.0213-0.01-0.006-0.004-0.0137-0.007-0.02-0.0112-0.007-0.004-0.0138-0.007-0.02-0.0113-0.007-0.004-0.0138-0.007-0.02-0.0113-0.006-0.004-0.0125-0.009-0.02-0.0125-0.2325-0.15-0.3962-0.3962-0.4325-0.6825-0.001-0.007-0.002-0.015-0.004-0.0238,0-0.007-0.001-0.0162-0.001-0.0238-0.001-0.009-0.001-0.0162-0.002-0.0237v-0.025h-0.001v-0.0238c-0.0275-15.81-0.0788-31.61-0.0788-47.42,0-0.5175,0.465-0.9412,1.034-0.9412h0.7975c0.5688,0,1.034,0.4238,1.034,0.9412l0.0787,45.73h3.674c0.525,0,0.955,0.4288,0.955,0.9538v0.7362c0,0.525-0.43,0.9538-0.955,0.9538z" filter="url(#filter4494)" fill="#5ebaf6"/>
   <path d="m388.6,427.8h1.07c4.66,8.791,4.96,16.14,4.96,26.37,0,11.2-0.3239,18.58-4.996,27.87h-1.021c-4.782-9.29-5.314-16.67-5.314-27.87,0-10.23,0.5259-17.58,5.302-26.37z" filter="url(#filter4518)" fill="#5c5c61"/>
   <path d="m388.6,427.8h1.07c4.66,8.791,4.96,16.14,4.96,26.37,0,11.2-0.3239,18.58-4.996,27.87h-1.021c-4.782-9.29-5.314-16.67-5.314-27.87,0-10.23,0.5259-17.58,5.302-26.37z" transform="matrix(1.2972258,0,0,1,-115.60102,0)" filter="url(#filter4562)" fill="#133047"/>
   <path d="m388.6,427.8h0.8865c3.86,8.791,4.109,16.14,4.109,26.37,0,11.2-0.2683,18.58-4.139,27.87h-0.846c-3.962-9.29-4.402-16.67-4.402-27.87,0-10.23,0.4356-17.58,4.392-26.37z" filter="url(#filter4510)" fill="#315ca2"/>
   <path d="m388.7,427.8h0.6695c2.915,8.791,3.103,16.14,3.103,26.37,0,11.2-0.2026,18.58-3.126,27.87h-0.6389c-2.992-9.29-3.325-16.67-3.325-27.87,0-10.23,0.329-17.58,3.317-26.37z" filter="url(#filter4530)" fill="#5193c6"/>
   <path d="m388.8,427.8h0.4191c1.825,8.791,1.942,16.14,1.942,26.37,0,11.2-0.1268,18.58-1.957,27.87h-0.3999c-1.873-9.29-2.081-16.67-2.081-27.87,0-10.23,0.206-17.58,2.076-26.37z" filter="url(#filter4502)" fill="#79c1e7"/>
   <path d="m388.9,427.8h0.2188c0.9525,8.791,1.014,16.14,1.014,26.37,0,11.2-0.0662,18.58-1.021,27.87h-0.2088c-0.9775-9.29-1.086-16.67-1.086-27.87,0-10.23,0.1075-17.58,1.084-26.37z" filter="url(#filter4498)" fill="#FFF"/>
   <path d="m424.5,430.1,5.585,0c0.525,0,0.9538,0.4288,0.9538,0.9538v0.7362c0,0.525-0.4288,0.9538-0.9538,0.9538h-3.674v19.7h3.674c0.525,0,0.9538,0.43,0.9538,0.955v0.735c0,0.525-0.4288,0.955-0.9538,0.955h-3.674v21.68h3.674c0.525,0,0.9538,0.4288,0.9538,0.9538v0.7362c0,0.525-0.4288,0.9538-0.9538,0.9538h-5.585c-0.525,0-0.9538-0.4288-0.9538-0.9538v-0.7362-23.59-0.735-21.61-0.7362c0-0.525,0.4288-0.9538,0.9538-0.9538zm-115.7,47.23c-0.1112,1.34-0.0975,2.085-1.149,2.085h-0.9925c-0.525,0-0.865-0.51-0.82-1.034l3.89-46.87c0.0537-0.6562,0.6438-1.242,1.512-1.242h0.9138c0.7362,0,1.174,0.5662,1.264,1.261l0.3925,3.022,5.239,43.82c0.0638,0.5238-0.2575,1.034-0.7812,1.034h-0.9925c-1.052,0-1.066-0.745-1.226-2.085l-1.465-12.26h-4.771l-1.014,12.26zm5.496-14.67-2.532-21.18-1.751,21.18,4.284,0zm147.3,16.76c-0.4312,0-0.8012-0.5075-0.8012-0.9412v-47.43c0-0.5175,0.4525-0.9412,1.006-0.9412h2.612c0.5538,0,1.068,0.4238,1.142,0.9412,1.541,10.65,3.05,21.31,4.571,31.96l-0.001-31.82c0-0.5175,0.3888-0.9412,0.985-0.9412h1.079c0.4312,0,0.8025,0.5075,0.8025,0.9412v47.29c0,0.5175-0.4538,0.9412-1.008,0.9412h-1.409c-0.5538,0-1.064-0.45-1.138-0.9675l-5.776-40.45c0.02,13.49-0.002,26.99-0.002,40.48,0,0.5175-0.3888,0.9412-0.9862,0.9412h-1.078zm46.75-16.97,0,12.14c0,2.654-2.19,4.825-4.866,4.825s-4.865-2.171-4.865-4.825v-10.57c0-0.5188,0.465-0.9425,1.034-0.9425h0.7975c0.5688,0,1.034,0.4238,1.034,0.9425v11.02c0,1.091,0.9,1.984,2,1.984s2.001-0.8925,2.001-1.984v-12.6c0-6.046-6.866-10.3-6.866-16.98v-10.12c0-2.654,2.189-4.825,4.865-4.825s4.866,2.171,4.866,4.825v7.844c0,0.5175-0.4662,0.9412-1.035,0.9412h-0.7962c-0.5688,0-1.034-0.4238-1.034-0.9412v-8.089c0-1.091-0.9012-1.984-2.001-1.984s-2,0.8925-2,1.984v10.17c0,6.662,6.866,10.36,6.866,17.18zm-154.3,16.97-5.584,0h-0.025c-0.007,0-0.0162-0.001-0.0237-0.001-0.009,0-0.0163-0.001-0.025-0.001-0.007-0.001-0.0163-0.001-0.0238-0.002-0.007-0.001-0.0162-0.001-0.0238-0.002-0.007-0.001-0.0162-0.002-0.0237-0.004-0.008-0.001-0.0163-0.002-0.0238-0.004-0.007-0.001-0.015-0.002-0.0238-0.005-0.007-0.001-0.015-0.002-0.0225-0.005-0.007-0.001-0.015-0.004-0.0225-0.005-0.007-0.002-0.015-0.004-0.0225-0.006-0.007-0.002-0.0163-0.005-0.0238-0.007-0.006-0.001-0.0138-0.004-0.0213-0.006-0.007-0.002-0.015-0.005-0.0225-0.009-0.007-0.002-0.0138-0.005-0.0213-0.008-0.007-0.002-0.015-0.006-0.0225-0.009-0.006-0.004-0.0137-0.006-0.02-0.01-0.007-0.002-0.015-0.006-0.0213-0.01-0.007-0.003-0.0137-0.006-0.0213-0.01-0.006-0.004-0.0137-0.007-0.02-0.0112-0.007-0.004-0.0138-0.007-0.02-0.0113-0.007-0.004-0.0138-0.007-0.02-0.0113-0.006-0.004-0.0125-0.009-0.02-0.0125-0.2325-0.15-0.3962-0.3962-0.4325-0.6825-0.001-0.007-0.002-0.015-0.004-0.0238,0-0.007-0.001-0.0162-0.001-0.0238-0.001-0.009-0.001-0.0162-0.002-0.0237v-0.025h-0.001v-0.0238c-0.0275-15.81-0.0788-31.61-0.0788-47.42,0-0.5175,0.465-0.9412,1.034-0.9412h0.7975c0.5688,0,1.034,0.4238,1.034,0.9412l0.0787,45.73h3.674c0.525,0,0.955,0.4288,0.955,0.9538v0.7362c0,0.525-0.43,0.9538-0.955,0.9538z" fill="#ecf6fd"/>
  </g>
 </g>
</svg>
